<svg version="1.1" id="Layer_1" xmlns="http://www.w3.org/2000/svg" xmlns:xlink="http://www.w3.org/1999/xlink" x="0px" y="0px"
	 width="100%" viewBox="0 0 512 512" enable-background="new 0 0 512 512" xml:space="preserve">
<path fill="#ffffff" opacity="1.000000" stroke="none" 
	d="
M235.000000,513.000000 
	C156.685654,513.000000 78.871307,513.000000 1.056963,513.000000 
	C1.037973,512.852356 1.002341,512.704712 1.002339,512.557068 
	C0.999989,342.098663 1.000000,171.640274 1.000000,1.090937 
	C171.564377,1.090937 342.128815,1.090937 512.846619,1.090937 
	C512.846619,171.666565 512.846619,342.333252 512.846619,513.000000 
	C420.454559,513.000000 327.977264,513.000000 235.000000,513.000000 
M44.679203,200.434021 
	C44.565128,200.950851 44.451057,201.467697 44.038368,202.681854 
	C43.978096,203.433578 43.917824,204.185318 43.423256,205.570663 
	C37.568687,233.798950 37.166359,262.143707 42.188580,290.492920 
	C61.170753,397.642792 155.085693,475.790771 263.890656,475.120880 
	C283.621277,474.999420 303.063232,472.809814 322.780121,467.039307 
	C354.044708,458.401031 382.054535,443.574158 406.912872,422.765747 
	C430.980652,402.619141 462.140472,361.533020 464.269562,347.163147 
	C378.272705,399.363892 275.561188,384.519592 209.062393,326.112305 
	C169.378265,291.256897 145.173187,247.592163 137.284271,195.428070 
	C129.415009,143.393753 139.798935,94.652481 167.564987,48.632072 
	C165.724396,49.426247 164.994278,49.701141 164.299393,50.046829 
	C118.114685,73.022507 83.620476,107.655945 61.011116,154.012817 
	C53.859100,168.676880 48.046268,183.872528 44.679203,200.434021 
M255.842209,213.652847 
	C258.705688,216.443970 261.464935,219.353302 264.459961,221.995270 
	C267.933258,225.059128 269.055847,228.600098 268.122925,233.162201 
	C266.864014,239.318375 266.006653,245.556656 264.850494,252.521667 
	C270.950165,249.337097 276.492340,246.704712 281.763519,243.610672 
	C286.141693,241.040771 290.056641,241.153519 294.397461,243.669205 
	C299.632202,246.702911 305.118408,249.302719 311.203064,252.457001 
	C310.060059,245.856964 309.277588,240.097534 308.021881,234.443176 
	C306.812622,228.997986 308.120270,224.848938 312.388306,221.116531 
	C316.794800,217.263031 320.671997,212.804245 325.086243,208.298431 
	C318.484497,207.369568 312.569122,206.377197 306.615326,205.748947 
	C301.631714,205.223083 298.427948,202.875732 296.403595,198.247925 
	C293.987854,192.725433 291.089325,187.414124 288.013916,181.235825 
	C284.814178,187.658844 281.897003,193.048676 279.421936,198.634399 
	C277.529083,202.906235 274.541962,205.081985 269.973877,205.633896 
	C263.793213,206.380600 257.643158,207.380173 249.724442,208.525085 
	C252.319763,210.664001 253.831558,211.909927 255.842209,213.652847 
z"/>
<path fill="#EFC700" opacity="1.000000" stroke="none" 
	d="
M43.857552,204.937042 
	C43.917824,204.185318 43.978096,203.433578 44.403656,202.241364 
	C44.844170,201.199463 44.919399,200.598068 44.994629,199.996658 
	C48.046268,183.872528 53.859100,168.676880 61.011116,154.012817 
	C83.620476,107.655945 118.114685,73.022507 164.299393,50.046829 
	C164.994278,49.701141 165.724396,49.426247 167.564987,48.632072 
	C139.798935,94.652481 129.415009,143.393753 137.284271,195.428070 
	C145.173187,247.592163 169.378265,291.256897 209.062393,326.112305 
	C275.561188,384.519592 378.272705,399.363892 464.269562,347.163147 
	C462.140472,361.533020 430.980652,402.619141 406.912872,422.765747 
	C382.054535,443.574158 354.044708,458.401031 322.083435,466.801147 
	C312.328308,467.369781 303.284363,468.573212 294.208557,468.904938 
	C271.990631,469.716919 250.004837,467.588531 228.383438,462.302856 
	C175.309311,449.328125 131.393631,421.626312 97.016945,379.254761 
	C72.787186,349.389923 56.801781,315.333527 49.268982,277.582764 
	C45.133953,256.859985 42.407661,235.925552 44.871338,214.652908 
	C45.236977,211.495773 44.229675,208.179626 43.857552,204.937042 
z"/>
<path fill="#F9D400" opacity="1.000000" stroke="none" 
	d="
M43.640404,205.253845 
	C44.229675,208.179626 45.236977,211.495773 44.871338,214.652908 
	C42.407661,235.925552 45.133953,256.859985 49.268982,277.582764 
	C56.801781,315.333527 72.787186,349.389923 97.016945,379.254761 
	C131.393631,421.626312 175.309311,449.328125 228.383438,462.302856 
	C250.004837,467.588531 271.990631,469.716919 294.208557,468.904938 
	C303.284363,468.573212 312.328308,467.369781 321.691803,466.776489 
	C303.063232,472.809814 283.621277,474.999420 263.890656,475.120880 
	C155.085693,475.790771 61.170753,397.642792 42.188580,290.492920 
	C37.166359,262.143707 37.568687,233.798950 43.640404,205.253845 
z"/>
<path fill="#ECC500" opacity="1.000000" stroke="none" 
	d="
M255.592773,213.404358 
	C253.831558,211.909927 252.319763,210.664001 249.724442,208.525085 
	C257.643158,207.380173 263.793213,206.380600 269.973877,205.633896 
	C274.541962,205.081985 277.529083,202.906235 279.421936,198.634399 
	C281.897003,193.048676 284.814178,187.658844 288.013916,181.235825 
	C291.089325,187.414124 293.987854,192.725433 296.403595,198.247925 
	C298.427948,202.875732 301.631714,205.223083 306.615326,205.748947 
	C312.569122,206.377197 318.484497,207.369568 325.086243,208.298431 
	C320.671997,212.804245 316.794800,217.263031 312.388306,221.116531 
	C308.120270,224.848938 306.812622,228.997986 308.021881,234.443176 
	C309.277588,240.097534 310.060059,245.856964 311.203064,252.457001 
	C305.118408,249.302719 299.632202,246.702911 294.397461,243.669205 
	C290.056641,241.153519 286.141693,241.040771 281.763519,243.610672 
	C276.492340,246.704712 270.950165,249.337097 264.850494,252.521667 
	C266.006653,245.556656 266.864014,239.318375 268.122925,233.162201 
	C269.055847,228.600098 267.933258,225.059128 264.459961,221.995270 
	C261.464935,219.353302 258.705688,216.443970 255.592773,213.404358 
z"/>
<path fill="#F9D400" opacity="1.000000" stroke="none" 
	d="
M44.836918,200.215332 
	C44.919399,200.598068 44.844170,201.199463 44.552963,201.892700 
	C44.451057,201.467697 44.565128,200.950851 44.836918,200.215332 
z"/>
</svg>