<?xml version="1.0" encoding="iso-8859-1"?>
<!-- Uploaded to: SVG Repo, www.svgrepo.com, Generator: SVG Repo Mixer Tools -->
<svg height="800px" width="800px" version="1.1" id="Layer_1" xmlns="http://www.w3.org/2000/svg" xmlns:xlink="http://www.w3.org/1999/xlink" 
	 viewBox="0 0 512 512" xml:space="preserve">
<path style="fill:#B3404A;" d="M251.047,496.27c-2.825,0-5.682-0.775-8.243-2.401c-28.462-18.06-168.788-141.545-212.847-216.025
	C9.238,242.825,0,208.995,0,168.151c0-46.479,15.706-85.897,45.42-113.994c27.211-25.73,64.507-39.899,105.021-39.899
	c56.652,0,88.577,25.623,105.694,48.157c17.074-22.535,48.935-48.157,105.526-48.157c40.509,0,77.79,14.171,104.976,39.905
	C496.313,82.254,512,121.671,512,168.153c0,40.785-9.254,74.616-30.007,109.694c-20.527,34.7-61.249,78.494-91.796,109.123
	c-6.008,6.028-15.767,6.041-21.792,0.031c-6.027-6.01-6.039-15.767-0.029-21.794c42.018-42.132,72.135-77.767,87.093-103.053
	c18.023-30.465,25.713-58.577,25.713-94.001c0-85.019-60.029-123.073-119.52-123.073c-54.837,0-79.066,30.021-88.628,47.918
	c-3.33,6.229-9.793,10.1-16.871,10.104c-0.005,0-0.009,0-0.014,0c-7.072,0-13.534-3.86-16.869-10.078
	c-9.6-17.906-33.909-47.943-88.839-47.943C90.899,45.078,30.82,83.133,30.82,168.151c0,35.484,7.674,63.598,25.662,94.001
	c41.035,69.365,176.542,189.01,202.836,205.694c7.186,4.56,9.315,14.081,4.755,21.267
	C261.137,493.739,256.146,496.27,251.047,496.27z"/>
<path style="fill:#F4B2B0;" d="M150.441,29.668c63.02,0,91.294,35.322,102.418,56.07c0.67,1.251,1.895,1.885,3.141,1.932v394.661
	c-1.715-0.028-3.424-0.513-4.94-1.475c-28.265-17.934-165.78-139.759-207.841-210.858C22.737,235.379,15.41,204.36,15.41,168.151
	C15.41,78.671,78.658,29.668,150.441,29.668z"/>
<path style="fill:#B3404A;" d="M255.999,497.741c-0.082,0-0.162,0-0.243-0.002c-4.598-0.074-9.078-1.411-12.952-3.871
	c-28.462-18.06-168.788-141.545-212.849-216.025C9.238,242.825,0,208.995,0,168.151c0-46.479,15.706-85.897,45.42-113.994
	c27.211-25.73,64.507-39.899,105.021-39.899c67.401,0,99.803,36.27,113.906,60.456c4.259,2.748,7.062,7.535,7.062,12.955V482.33
	c0,4.13-1.658,8.086-4.6,10.983C263.924,496.154,260.041,497.741,255.999,497.741z M150.441,45.078
	c-59.542,0-119.621,38.054-119.621,123.073c0,35.484,7.674,63.598,25.662,94.001c34.826,58.868,137.703,153.959,184.11,191.583
	V95.121c-0.479-0.666-0.917-1.365-1.308-2.094C229.678,75.115,205.37,45.078,150.441,45.078z"/>
</svg>