<?xml version="1.0" encoding="iso-8859-1"?>
<!-- Uploaded to: SVG Repo, www.svgrepo.com, Generator: SVG Repo Mixer Tools -->
<svg height="800px" width="800px" version="1.1" id="Layer_1" xmlns="http://www.w3.org/2000/svg" xmlns:xlink="http://www.w3.org/1999/xlink" 
	 viewBox="0 0 512 512" xml:space="preserve">
<path style="fill:#4AD0FF;" d="M448.833,202.758c-19.452-28.602-58.427-34.415-85.245-14.009c-0.137,0.112-0.276,0.222-0.416,0.331
	c-34.937,27.037-83.727,27.034-118.65-0.001c-21.305-16.498-51.249-16.699-72.785-0.001c-21.033,16.287-48.202,23.229-74.531,19.054
	c-26.693-4.233-49.783-18.897-65.014-41.287c-2.113-3.106-3.244-6.778-3.244-10.536v-40.01c0-2.597,0.541-5.167,1.587-7.545
	l42.933-97.566C76.458,4.389,83.184,0,90.612,0h330.777c7.428,0,14.154,4.389,17.145,11.188l42.933,97.566
	c1.046,2.378,1.587,4.948,1.587,7.545v75.926C483.053,210.657,459.159,217.942,448.833,202.758z"/>
<path style="fill:#16A5D9;" d="M481.466,108.754l-42.933-97.566C435.542,4.389,428.816,0,421.388,0H256v196.708
	c33.582,19.089,75.916,16.56,107.17-7.628c0.14-0.109,0.278-0.219,0.416-0.331c26.819-20.406,65.794-14.593,85.245,14.009
	c10.326,15.184,34.22,7.899,34.22-10.535v-75.926C483.053,113.701,482.513,111.131,481.466,108.754z"/>
<path style="fill:#99E5FF;" d="M439.346,512H72.654c-24.1,0-43.707-19.607-43.707-43.707V156.31
	c0-18.367,23.868-25.754,34.219-10.536c9.357,13.754,23.53,22.759,39.907,25.356c16.187,2.57,32.518-1.42,45.729-11.687
	c34.93-27.04,83.721-27.034,118.654,0.014c21.287,16.479,50.971,16.584,72.376,0.312c0.134-0.11,0.27-0.219,0.408-0.326
	c43.013-33.297,107.29-25.218,139.571,22.247c2.113,3.107,3.243,6.777,3.243,10.535v276.068
	C483.053,492.393,463.446,512,439.346,512z"/>
<path style="fill:#4AD0FF;" d="M479.81,181.69c-32.28-47.465-96.557-55.546-139.571-22.247c-0.137,0.107-0.273,0.216-0.408,0.326
	c-21.404,16.272-51.089,16.167-72.376-0.312c-3.674-2.845-7.508-5.371-11.456-7.618V512h183.346c24.1,0,43.707-19.607,43.707-43.707
	V192.225C483.053,188.467,481.923,184.797,479.81,181.69z"/>
<path style="fill:#325763;" d="M480.548,37.463H31.452c-10.345,0-18.732-8.387-18.732-18.732S21.107,0,31.452,0h449.096
	c10.345,0,18.732,8.387,18.732,18.732S490.893,37.463,480.548,37.463z"/>
<path style="fill:#072F3D;" d="M480.548,0H256v37.463h224.548c10.345,0,18.732-8.387,18.732-18.732S490.893,0,480.548,0z"/>
<g>
	<path style="fill:#16A5D9;" d="M362.074,462.049c-32.278,0-58.539-26.261-58.539-58.54c0-32.278,26.261-58.539,58.539-58.539
		s58.539,26.261,58.539,58.539C420.613,435.788,394.352,462.049,362.074,462.049z"/>
	<path style="fill:#16A5D9;" d="M362.074,325.089c-24.38,0-44.214-19.834-44.214-44.214c0-24.379,19.834-44.213,44.214-44.213
		c24.38,0,44.214,19.834,44.214,44.213C406.288,305.254,386.454,325.089,362.074,325.089z"/>
</g>
</svg>