<svg version="1.1" id="Layer_1" xmlns="http://www.w3.org/2000/svg" xmlns:xlink="http://www.w3.org/1999/xlink" x="0px" y="0px"
	 width="100%" viewBox="0 0 192 192" enable-background="new 0 0 192 192" xml:space="preserve">
<path fill="#FEFA7F" opacity="1.000000" stroke="none" 
	d="
M122.000000,193.000000 
	C81.359497,193.000000 41.218994,193.000000 1.039244,193.000000 
	C1.039244,129.067871 1.039244,65.135712 1.039244,1.101775 
	C64.890320,1.101775 128.780853,1.101775 192.835693,1.101775 
	C192.835693,64.999657 192.835693,128.999786 192.835693,193.000000 
	C169.469330,193.000000 145.984665,193.000000 122.000000,193.000000 
M90.285568,16.897095 
	C88.943130,16.478161 87.600693,16.059227 84.839508,15.197545 
	C85.575127,18.244089 86.095779,20.081690 86.449448,21.950888 
	C86.836662,23.997393 87.943069,26.449766 87.239975,28.080040 
	C74.989960,56.484161 62.548794,84.806252 50.047001,113.101021 
	C47.537521,118.780617 43.386631,122.472313 36.770340,123.014351 
	C35.380512,123.128212 34.122780,124.854401 32.804173,125.837631 
	C34.223400,126.637527 35.629875,128.103378 37.063896,128.130844 
	C47.551071,128.331696 58.044537,128.306549 68.533897,128.178879 
	C70.082420,128.160034 71.619797,127.224869 73.162331,126.713646 
	C73.201584,126.129921 73.240837,125.546204 73.280090,124.962479 
	C71.339905,124.141144 69.470093,122.974121 67.446571,122.562233 
	C60.961823,121.242256 60.482674,120.655235 62.611244,114.292976 
	C63.929459,110.352844 65.279274,106.403496 66.980988,102.623070 
	C67.517250,101.431740 69.223770,100.014763 70.423340,99.988045 
	C86.720909,99.625145 103.023491,99.486099 119.325157,99.323463 
	C119.564972,99.321060 119.808807,99.721283 120.209068,100.072517 
	C120.209068,101.258171 120.274742,102.580460 120.199310,103.894653 
	C118.849892,127.404922 109.787827,147.683273 94.351204,165.249496 
	C91.606415,168.372971 88.387894,171.105423 85.866104,174.385864 
	C84.981117,175.537079 85.530479,177.790909 85.424889,179.541290 
	C86.855598,179.395004 88.653130,179.756454 89.662605,179.027130 
	C108.060135,165.735474 122.395439,149.193115 129.091064,127.116219 
	C131.820709,118.115990 133.319321,108.742393 135.452728,99.204620 
	C137.732117,99.204620 141.220230,98.134239 143.231491,99.403717 
	C149.464310,103.337753 154.416962,98.801346 160.010422,97.984833 
	C155.939301,96.310425 151.822769,94.625938 147.677734,94.552574 
	C143.491470,94.478485 139.276947,96.001625 134.461136,96.945290 
	C132.570526,62.528202 117.397446,36.747295 90.285568,16.897095 
z"/>
<path fill="#830904" opacity="1.000000" stroke="none" 
	d="
M90.606331,17.100616 
	C117.397446,36.747295 132.570526,62.528202 134.461136,96.945290 
	C139.276947,96.001625 143.491470,94.478485 147.677734,94.552574 
	C151.822769,94.625938 155.939301,96.310425 160.010422,97.984833 
	C154.416962,98.801346 149.464310,103.337753 143.231491,99.403717 
	C141.220230,98.134239 137.732117,99.204620 135.452728,99.204620 
	C133.319321,108.742393 131.820709,118.115990 129.091064,127.116219 
	C122.395439,149.193115 108.060135,165.735474 89.662605,179.027130 
	C88.653130,179.756454 86.855598,179.395004 85.424889,179.541290 
	C85.530479,177.790909 84.981117,175.537079 85.866104,174.385864 
	C88.387894,171.105423 91.606415,168.372971 94.351204,165.249496 
	C109.787827,147.683273 118.849892,127.404922 120.199310,103.894653 
	C120.274742,102.580460 120.209068,101.258171 120.209068,100.072517 
	C119.808807,99.721283 119.564972,99.321060 119.325157,99.323463 
	C103.023491,99.486099 86.720909,99.625145 70.423340,99.988045 
	C69.223770,100.014763 67.517250,101.431740 66.980988,102.623070 
	C65.279274,106.403496 63.929459,110.352844 62.611244,114.292976 
	C60.482674,120.655235 60.961823,121.242256 67.446571,122.562233 
	C69.470093,122.974121 71.339905,124.141144 73.280090,124.962479 
	C73.240837,125.546204 73.201584,126.129921 73.162331,126.713646 
	C71.619797,127.224869 70.082420,128.160034 68.533897,128.178879 
	C58.044537,128.306549 47.551071,128.331696 37.063896,128.130844 
	C35.629875,128.103378 34.223400,126.637527 32.804176,125.837631 
	C34.122780,124.854401 35.380512,123.128212 36.770340,123.014351 
	C43.386631,122.472313 47.537521,118.780617 50.047001,113.101021 
	C62.548794,84.806252 74.989960,56.484161 87.239975,28.080040 
	C87.943069,26.449766 86.836662,23.997393 86.449448,21.950888 
	C86.095779,20.081690 85.575127,18.244089 84.839508,15.197545 
	C87.600693,16.059227 88.943130,16.478161 90.606331,17.100616 
M101.499573,96.041252 
	C107.746597,96.041252 113.993629,96.041252 120.430901,96.041252 
	C119.949036,71.031754 110.930336,50.225021 95.203552,30.994888 
	C86.335327,53.024769 77.801659,74.223579 69.018852,96.041260 
	C79.965355,96.041260 90.232506,96.041260 101.499573,96.041252 
z"/>
<path fill="#FDF77E" opacity="1.000000" stroke="none" 
	d="
M100.999611,96.041260 
	C90.232506,96.041260 79.965355,96.041260 69.018852,96.041260 
	C77.801659,74.223579 86.335327,53.024769 95.203552,30.994888 
	C110.930336,50.225021 119.949036,71.031754 120.430901,96.041252 
	C113.993629,96.041252 107.746597,96.041252 100.999611,96.041260 
z"/>
</svg>