<?xml version="1.0" encoding="UTF-8"?>
<svg version="1.1" xmlns="http://www.w3.org/2000/svg" width="512" height="512" style="background-color: rgba(0,0,0,0)">
<path d="M0 0 C2.76562517 2.48197131 3.84188913 4.03174581 4.44140625 7.703125 C3.81225715 12.40225634 1.44281349 14.9583309 -1.5 18.5625 C-2.61721011 19.99433895 -3.73047093 21.42926778 -4.83984375 22.8671875 C-5.65751221 23.92437988 -5.65751221 23.92437988 -6.49169922 25.00292969 C-10.07742585 29.75062212 -13.08764134 34.821887 -16 40 C-16.63204346 41.1147168 -16.63204346 41.1147168 -17.27685547 42.25195312 C-43.98250662 89.84242838 -49.61945468 144.22724769 -35.26220703 196.69628906 C-26.06231599 228.53158493 -8.75203488 256.16453489 14 280 C14.80050781 280.85335938 15.60101563 281.70671875 16.42578125 282.5859375 C51.50301332 318.98358911 102.99010434 338.37727077 152.96655273 339.30053711 C195.58978484 339.47585301 239.29099793 326.92314015 273.32421875 300.70703125 C274.04359619 300.15329834 274.76297363 299.59956543 275.50415039 299.02905273 C276.88178319 297.95463553 278.2477311 296.86500271 279.59936523 295.75805664 C282.64454948 293.34971155 284.36118806 292.08431406 288.28515625 291.56640625 C291.96755797 292.15453084 293.51230839 293.22800077 296 296 C297.79469988 302.44272447 296.0501948 306.81814176 293.625 312.75 C293.25995361 313.66885986 292.89490723 314.58771973 292.51879883 315.53442383 C279.72758008 347.23629356 261.48579041 374.22720174 238 399 C236.93265625 400.13115234 236.93265625 400.13115234 235.84375 401.28515625 C230.61597079 406.67362539 224.87943627 411.34317498 219 416 C217.58654297 417.15628906 217.58654297 417.15628906 216.14453125 418.3359375 C181.22879994 446.2504549 137.41518027 463.57392178 93 468 C91.93910156 468.11085938 90.87820313 468.22171875 89.78515625 468.3359375 C55.53941879 471.34923663 21.53776193 466.94348158 -11 456 C-11.68288086 455.77231934 -12.36576172 455.54463867 -13.06933594 455.31005859 C-38.08956345 446.82434936 -61.61349382 433.7904779 -82 417 C-82.99257812 416.20980469 -83.98515625 415.41960937 -85.0078125 414.60546875 C-99.40040584 402.97543479 -112.92186795 389.62706263 -123.80566406 374.63867188 C-125.00233421 372.99679738 -126.22858707 371.38083212 -127.4609375 369.765625 C-152.59407276 336.32250002 -167.86915968 294.50053527 -172 253 C-172.11085937 251.9275 -172.22171875 250.855 -172.3359375 249.75 C-178.05621261 184.19873928 -156.59193542 120.88250419 -114.63598633 70.71972656 C-105.33042572 59.74370581 -95.37531444 49.85065449 -84 41 C-83.37464355 40.5035498 -82.74928711 40.00709961 -82.10498047 39.49560547 C-72.47558002 31.85136417 -62.75165904 24.96467344 -52 19 C-51.29713867 18.60216309 -50.59427734 18.20432617 -49.87011719 17.79443359 C-12.72975932 -3.12660755 -12.72975932 -3.12660755 0 0 Z " fill="#EEC600" transform="translate(194,22)"/>
<path d="M0 0 C2.76562517 2.48197131 3.84188913 4.03174581 4.44140625 7.703125 C3.81225715 12.40225634 1.44281349 14.9583309 -1.5 18.5625 C-2.61721011 19.99433895 -3.73047093 21.42926778 -4.83984375 22.8671875 C-5.65751221 23.92437988 -5.65751221 23.92437988 -6.49169922 25.00292969 C-10.07742585 29.75062212 -13.08764134 34.821887 -16 40 C-16.63204346 41.1147168 -16.63204346 41.1147168 -17.27685547 42.25195312 C-43.98250662 89.84242838 -49.61945468 144.22724769 -35.26220703 196.69628906 C-26.06231599 228.53158493 -8.75203488 256.16453489 14 280 C14.80050781 280.85335938 15.60101563 281.70671875 16.42578125 282.5859375 C51.50301332 318.98358911 102.99010434 338.37727077 152.96655273 339.30053711 C195.58978484 339.47585301 239.29099793 326.92314015 273.32421875 300.70703125 C274.04359619 300.15329834 274.76297363 299.59956543 275.50415039 299.02905273 C276.88178319 297.95463553 278.2477311 296.86500271 279.59936523 295.75805664 C282.64454948 293.34971155 284.36118806 292.08431406 288.28515625 291.56640625 C291.96755797 292.15453084 293.51230839 293.22800077 296 296 C297.79469988 302.44272447 296.0501948 306.81814176 293.625 312.75 C293.25995361 313.66885986 292.89490723 314.58771973 292.51879883 315.53442383 C279.72758008 347.23629356 261.48579041 374.22720174 238 399 C236.93265625 400.13115234 236.93265625 400.13115234 235.84375 401.28515625 C230.61597079 406.67362539 224.87943627 411.34317498 219 416 C217.58654297 417.15628906 217.58654297 417.15628906 216.14453125 418.3359375 C181.22879994 446.2504549 137.41518027 463.57392178 93 468 C91.93910156 468.11085938 90.87820313 468.22171875 89.78515625 468.3359375 C55.53941879 471.34923663 21.53776193 466.94348158 -11 456 C-11.68288086 455.77231934 -12.36576172 455.54463867 -13.06933594 455.31005859 C-38.08956345 446.82434936 -61.61349382 433.7904779 -82 417 C-82.99257812 416.20980469 -83.98515625 415.41960937 -85.0078125 414.60546875 C-99.40040584 402.97543479 -112.92186795 389.62706263 -123.80566406 374.63867188 C-125.00233421 372.99679738 -126.22858707 371.38083212 -127.4609375 369.765625 C-152.59407276 336.32250002 -167.86915968 294.50053527 -172 253 C-172.11085937 251.9275 -172.22171875 250.855 -172.3359375 249.75 C-178.05621261 184.19873928 -156.59193542 120.88250419 -114.63598633 70.71972656 C-105.33042572 59.74370581 -95.37531444 49.85065449 -84 41 C-83.37464355 40.5035498 -82.74928711 40.00709961 -82.10498047 39.49560547 C-72.47558002 31.85136417 -62.75165904 24.96467344 -52 19 C-51.29713867 18.60216309 -50.59427734 18.20432617 -49.87011719 17.79443359 C-12.72975932 -3.12660755 -12.72975932 -3.12660755 0 0 Z M-77 57 C-77.78117187 57.6703125 -78.56234375 58.340625 -79.3671875 59.03125 C-81.95838489 61.30810541 -84.48620794 63.63781111 -87 66 C-87.55703613 66.52303711 -88.11407227 67.04607422 -88.68798828 67.58496094 C-98.58737216 76.95996229 -107.07105048 86.91921965 -115 98 C-115.43618652 98.59683594 -115.87237305 99.19367188 -116.32177734 99.80859375 C-149.25753969 145.10971248 -162.98364517 205.15487057 -154.76733398 260.47973633 C-154.11492049 264.20979273 -153.3724665 267.90903322 -152.53808594 271.60253906 C-152.04040315 273.81998231 -151.60780082 276.03886334 -151.1953125 278.2734375 C-147.5503622 296.89573871 -140.11715615 315.56433551 -131.00195312 332.17285156 C-129.94403365 334.1020595 -128.91753377 336.0463174 -127.890625 337.9921875 C-122.72531618 347.62500901 -116.70776938 356.38148684 -110 365 C-109.27167969 365.94230469 -108.54335937 366.88460938 -107.79296875 367.85546875 C-88.5223474 392.05994121 -65.26933047 411.40650603 -38 426 C-37.32549805 426.36673828 -36.65099609 426.73347656 -35.95605469 427.11132812 C13.48538213 453.81117914 74.50766297 460.07816681 128.453125 444.390625 C129.97001477 443.93123906 131.48563807 443.46765155 133 443 C133.77408203 442.76474609 134.54816406 442.52949219 135.34570312 442.28710938 C168.59430033 431.98357843 197.98448074 414.00990942 223 390 C223.84328857 389.19755859 223.84328857 389.19755859 224.70361328 388.37890625 C233.30067692 380.15913577 240.96144562 371.58632068 248 362 C248.74507813 360.9996875 249.49015625 359.999375 250.2578125 358.96875 C255.1191628 352.20816249 259.34849537 345.15020891 263.5 337.9375 C264.02907959 337.02025146 264.55815918 336.10300293 265.10327148 335.15795898 C265.59512939 334.28985596 266.0869873 333.42175293 266.59375 332.52734375 C267.03396484 331.75124756 267.47417969 330.97515137 267.92773438 330.17553711 C268.94588698 328.10979078 269.54201609 326.24930228 270 324 C266.06617277 325.42054872 262.52347901 327.31376547 258.87304688 329.32519531 C247.93403357 335.31689355 236.7574688 339.88533709 225 344 C224.21689453 344.28359375 223.43378906 344.5671875 222.62695312 344.859375 C190.12260725 356.56867207 149.87115213 359.34292799 116 352 C114.55802246 351.70198486 114.55802246 351.70198486 113.08691406 351.39794922 C92.12285962 347.00438365 72.8872737 340.05358221 54 330 C53.00742188 329.48695313 52.01484375 328.97390625 50.9921875 328.4453125 C34.83637549 319.93014093 20.22073527 308.54882944 7 296 C6.47970215 295.51225098 5.9594043 295.02450195 5.42333984 294.52197266 C-20.95018232 269.65463953 -38.70226368 238.2257034 -50 204 C-50.40863281 202.79601562 -50.81726563 201.59203125 -51.23828125 200.3515625 C-57.42089736 180.63403005 -59.24719846 159.55901188 -59.3125 139 C-59.31511841 138.20953278 -59.31773682 137.41906555 -59.32043457 136.60464478 C-59.32554357 122.12483876 -58.01538142 108.1901873 -55 94 C-54.84515137 93.2663623 -54.69030273 92.53272461 -54.53076172 91.77685547 C-53.57437957 87.43977363 -52.3509224 83.22897446 -51 79 C-50.78037598 78.2884375 -50.56075195 77.576875 -50.33447266 76.84375 C-45.39863364 61.01698388 -39.06796673 44.1203851 -29.63671875 30.3984375 C-27.81210976 28.20861328 -27.81210976 28.20861328 -28 26 C-42.97461806 26 -66.12661296 47.59230463 -77 57 Z " fill="#090800" transform="translate(194,22)"/>
<path d="M0 0 C0.66 -0.0103125 1.32 -0.020625 2 -0.03125 C4.92989407 0.74700311 6.04366176 2.19611406 8 4.5 C9.29150391 7.62866211 9.29150391 7.62866211 10.4765625 11.27734375 C15.0965209 25.27241362 15.0965209 25.27241362 24.88525391 35.5456543 C33.8746642 39.03019387 44.02092806 39.15588945 53.54931641 39.17651367 C57.2348961 39.52202047 59.08231025 40.2711998 62 42.5 C63.62219122 45.74438244 63.62952481 48.99850318 63 52.5 C61.18691817 54.8762578 59.71396508 56.46372521 57.49609375 58.36328125 C56.35175263 59.42593616 55.20788691 60.48910321 54.06445312 61.55273438 C52.25433932 63.18907726 50.43555647 64.81421455 48.60571289 66.4284668 C41.40513815 72.38772153 41.40513815 72.38772153 37.39086914 80.42504883 C37.6291853 83.2766421 38.19153464 85.75902903 39 88.5 C39.26813854 90.05056787 39.52034166 91.60400505 39.75390625 93.16015625 C40.02207765 94.62785328 40.2916102 96.09530226 40.5625 97.5625 C43.44082231 114.22793405 43.44082231 114.22793405 40.375 119.0625 C37.40140209 120.86230926 35.48545629 121.29473167 32 121.5 C29.32960071 120.47111948 27.04822112 119.42402718 24.5625 118.0625 C23.87309326 117.70430176 23.18368652 117.34610352 22.47338867 116.97705078 C18.87265693 115.09452414 15.32634331 113.125741 11.796875 111.11328125 C11.12712646 110.7380835 10.45737793 110.36288574 9.76733398 109.97631836 C8.4887951 109.25601251 7.21944886 108.51907547 5.96118164 107.76391602 C4.01829253 106.61457649 4.01829253 106.61457649 1 105.5 C-2.80067981 106.68823212 -6.21589082 108.61510483 -9.7109375 110.50390625 C-10.79117188 111.07947266 -11.87140625 111.65503906 -12.984375 112.24804688 C-15.24035217 113.45530655 -17.49298721 114.66883297 -19.7421875 115.88867188 C-20.825 116.46294922 -21.9078125 117.03722656 -23.0234375 117.62890625 C-24.00231934 118.15556885 -24.98120117 118.68223145 -25.98974609 119.22485352 C-29.38631549 120.66364362 -32.32629957 121.23495752 -36 121.5 C-38.94755732 120.15437601 -40.54277272 119.41445456 -42 116.5 C-42.63228965 109.08530099 -41.4033569 102.00383803 -40 94.75 C-39.62021225 92.75611433 -39.24506597 90.7613379 -38.875 88.765625 C-38.70742187 87.89711914 -38.53984375 87.02861328 -38.3671875 86.13378906 C-37.76661521 81.8291626 -37.76661521 81.8291626 -38 77.5 C-39.77443419 75.29705884 -41.3901951 73.59201767 -43.46875 71.7265625 C-44.60827148 70.64343803 -45.74758808 69.56009798 -46.88671875 68.4765625 C-48.69143666 66.79608775 -50.50236526 65.1228284 -52.31884766 63.45507812 C-54.07347183 61.83366216 -55.80262045 60.1880998 -57.53125 58.5390625 C-58.07809448 58.05233063 -58.62493896 57.56559875 -59.18835449 57.06411743 C-62.10911776 54.25989086 -63.34778755 52.25210099 -63.43164062 48.27099609 C-63 44.5 -63 44.5 -61.5625 42.125 C-56.10134339 38.66182751 -50.03843463 38.41691351 -43.7421875 38.484375 C-31.77416539 38.54800496 -31.77416539 38.54800496 -21.62103271 33.09301758 C-15.89980915 25.63215651 -12.55907198 16.41520204 -9.40258789 7.64453125 C-7.41195893 3.1816416 -5.16831903 -0.08075498 0 0 Z " fill="#080700" transform="translate(287,153.5)"/>
<path d="M0 0 C0.66 0 1.32 0 2 0 C1.98952637 0.60134766 1.97905273 1.20269531 1.96826172 1.82226562 C1.15126885 56.55044606 13.26246467 110.13356225 46 155 C46.40959961 155.56364258 46.81919922 156.12728516 47.24121094 156.70800781 C52.34422052 163.66738154 57.82406433 170.19876214 63.70703125 176.51953125 C65.66268066 178.63509748 67.52565881 180.79243291 69.375 183 C78.87503748 193.84147795 90.41487192 202.53215538 102 211 C102.59055176 211.43666992 103.18110352 211.87333984 103.78955078 212.32324219 C151.88334403 247.5111002 211.71363118 258.43483241 270 254 C269.67 254.99 269.34 255.98 269 257 C266.6046939 257.4612271 264.20879868 257.91897976 261.8125 258.375 C261.15830078 258.50132812 260.50410156 258.62765625 259.83007812 258.7578125 C257.55622933 259.18887388 255.27862666 259.59496022 253 260 C251.60467041 260.26466064 251.60467041 260.26466064 250.18115234 260.53466797 C240.76928477 262.18096824 231.52530632 262.39969025 222 262.375 C221.17118317 262.37412384 220.34236633 262.37324768 219.48843384 262.37234497 C164.40194644 262.18165209 110.88607787 242.52969518 70.21875 205.03125 C68.22984201 203.21041875 66.19317024 201.47912594 64.125 199.75 C29.48409495 169.43920808 7.41347232 123.61931526 -1 79 C-1.12741577 78.33286987 -1.25483154 77.66573975 -1.3861084 76.97839355 C-3.54228061 65.44705926 -4.47978215 54.24753453 -4.39111328 42.52050781 C-4.37500065 40.00010118 -4.39109963 37.481297 -4.41015625 34.9609375 C-4.42383613 23.44080298 -3.35479566 12.28811735 -1 1 C-0.67 0.67 -0.34 0.34 0 0 Z " fill="#F8D400" transform="translate(42,212)"/>
<path d="M0 0 C0.66 0 1.32 0 2 0 C2.27674561 0.59014893 2.55349121 1.18029785 2.83862305 1.78833008 C4.10668508 4.47039344 5.39674915 7.14128654 6.6875 9.8125 C7.12255859 10.74126953 7.55761719 11.67003906 8.00585938 12.62695312 C10.49569779 17.74666082 10.49569779 17.74666082 14.15625 22.03125 C18.62077482 23.55213208 23.14359436 24.11368554 27.8125 24.6875 C29.28106445 24.88182617 29.28106445 24.88182617 30.77929688 25.08007812 C33.18506371 25.39693522 35.59168864 25.70321563 38 26 C34.45281773 30.30024552 30.81563394 34.11895327 26.625 37.8125 C22.39973414 41.98328998 22.39973414 41.98328998 21.25 47.5625 C21.448527 49.38135769 21.7087326 51.19367236 22 53 C22.16823175 54.46929235 22.32907245 55.9394411 22.484375 57.41015625 C22.93663393 61.61450544 23.45516107 65.80668612 24 70 C18.25861262 68.29310105 13.53461907 65.5133374 8.4140625 62.4609375 C3.58478399 60.39440413 -0.32709402 59.95687125 -5.19580078 61.85693359 C-7.47705548 62.99232528 -9.67492446 64.21469271 -11.875 65.5 C-13.3705705 66.34698125 -14.86788462 67.1908934 -16.3671875 68.03125 C-17.01800293 68.40830078 -17.66881836 68.78535156 -18.33935547 69.17382812 C-20 70 -20 70 -22 70 C-21.14700544 59.80036298 -21.14700544 59.80036298 -20.4375 55.9375 C-20.293125 54.968125 -20.14875 53.99875 -20 53 C-19.83963257 51.92419678 -19.83963257 51.92419678 -19.67602539 50.82666016 C-19.35139754 46.87578721 -19.28610673 44.09225322 -21.50170898 40.70239258 C-23.57314521 38.48012239 -25.72437415 36.44981441 -28 34.4375 C-29.50114121 33.04159082 -31.00120562 31.64452243 -32.5 30.24609375 C-33.1703125 29.64466553 -33.840625 29.0432373 -34.53125 28.42358398 C-35.0159375 27.95380127 -35.500625 27.48401855 -36 27 C-36 26.67 -36 26.34 -36 26 C-35.32420898 25.89977539 -34.64841797 25.79955078 -33.95214844 25.69628906 C-30.88191503 25.2311661 -27.8162149 24.74088745 -24.75 24.25 C-23.15478516 24.01410156 -23.15478516 24.01410156 -21.52734375 23.7734375 C-20.50253906 23.60585937 -19.47773438 23.43828125 -18.421875 23.265625 C-17.47924805 23.11899414 -16.53662109 22.97236328 -15.56542969 22.82128906 C-11.67447304 21.57564972 -9.80585664 19.32588312 -7.71972656 15.89355469 C-7.36362305 15.16040039 -7.00751953 14.42724609 -6.640625 13.671875 C-6.24746094 12.87265625 -5.85429687 12.0734375 -5.44921875 11.25 C-5.05347656 10.425 -4.65773438 9.6 -4.25 8.75 C-3.63318359 7.48929688 -3.63318359 7.48929688 -3.00390625 6.203125 C-1.99523315 4.13886376 -0.99424543 2.07123857 0 0 Z " fill="#EBC300" transform="translate(286,181)"/>
<path d="M0 0 C2.26224734 1.67589279 4.22098045 3.4707483 6.203125 5.46875 C7.98709057 7.32430425 7.98709057 7.32430425 11 7 C12.90691527 5.45082597 12.90691527 5.45082597 14.8125 3.5 C17.47890438 1.09242242 18.61634471 0.08274918 22.1875 -0.6875 C25.76940731 0.18807734 27.49903384 1.28466531 30 4 C31.18899019 7.49265868 31.36405997 9.17075228 29.875 12.5625 C27.78054043 15.28529744 25.49381507 17.64098574 23 20 C24.15925613 22.84544687 25.2633455 24.24407631 27.5625 26.375 C30.38552502 29.41518079 31 30.88043442 31 35 C29.6260627 37.87872577 28.25010563 39.74989437 26 42 C22.875 42.5625 22.875 42.5625 19 42 C16.72791927 40.33131068 14.78133399 38.53158466 12.796875 36.53125 C11.01290943 34.67569575 11.01290943 34.67569575 8 35 C6.38583056 36.55435472 6.38583056 36.55435472 4.8125 38.5 C2.21215895 41.21603419 0.62504664 42.53812784 -3.1875 42.6875 C-7 42 -7 42 -9.4375 40.375 C-11.37231132 37.4340868 -11.92809193 35.52349544 -12 32 C-10.18378112 27.863057 -7.25523313 25.07927458 -4 22 C-5.34406448 18.99060684 -6.86192145 17.00203067 -9.1875 14.6875 C-11.6834198 11.84373808 -11.98957763 11.30745982 -12.125 7.3125 C-9.92041862 0.8212326 -6.88963618 -1.26309997 0 0 Z " fill="#0C0A00" transform="translate(196,118)"/>
<path d="M0 0 C4.19236389 0.04606993 5.9770456 1.70641959 8.875 4.625 C10.0622156 5.94006959 11.23603081 7.26793033 12.375 8.625 C12.84550781 8.21507812 13.31601562 7.80515625 13.80078125 7.3828125 C14.42339844 6.84398437 15.04601562 6.30515625 15.6875 5.75 C16.60982422 4.94949219 16.60982422 4.94949219 17.55078125 4.1328125 C20.14516059 1.98842186 21.86670192 0.69129975 25.25 0.25 C29.19101525 0.72292183 30.696833 1.71727583 33.375 4.625 C34.56399019 8.11765868 34.73905997 9.79575228 33.25 13.1875 C31.15554043 15.91029744 28.86881507 18.26598574 26.375 20.625 C27.53425613 23.47044687 28.6383455 24.86907631 30.9375 27 C33.76052502 30.04018079 34.375 31.50543442 34.375 35.625 C33.0010627 38.50372577 31.62510563 40.37489437 29.375 42.625 C26.25 43.1875 26.25 43.1875 22.375 42.625 C20.10291927 40.95631068 18.15633399 39.15658466 16.171875 37.15625 C14.38790943 35.30069575 14.38790943 35.30069575 11.375 35.625 C9.76083056 37.17935472 9.76083056 37.17935472 8.1875 39.125 C5.58715895 41.84103419 4.00004664 43.16312784 0.1875 43.3125 C-3.625 42.625 -3.625 42.625 -6.0625 41 C-7.99731132 38.0590868 -8.55309193 36.14849544 -8.625 32.625 C-6.80878112 28.488057 -3.88023313 25.70427458 -0.625 22.625 C-1.78425613 19.77955313 -2.8883455 18.38092369 -5.1875 16.25 C-8.01052502 13.20981921 -8.625 11.74456558 -8.625 7.625 C-6.50001371 3.17264776 -4.98450718 0.85939779 0 0 Z " fill="#0F0C00" transform="translate(363.625,288.375)"/>
<path d="M0 0 C0.66 0.33 1.32 0.66 2 1 C-8.23 11.23 -18.46 21.46 -29 32 C-29 28.46395468 -28.54436681 28.13832022 -26.2109375 25.6640625 C-25.30226929 24.69436523 -25.30226929 24.69436523 -24.37524414 23.70507812 C-23.71516357 23.01865234 -23.05508301 22.33222656 -22.375 21.625 C-21.70654053 20.92052734 -21.03808105 20.21605469 -20.34936523 19.49023438 C-13.83792327 12.69674968 -6.99275218 6.2923995 0 0 Z " fill="#4C4200" transform="translate(107,65)"/>
<path d="M0 0 C0.33 0 0.66 0 1 0 C1 3.3 1 6.6 1 10 C0.01 10.33 -0.98 10.66 -2 11 C-1.85957123 9.35369672 -1.71250671 7.70795821 -1.5625 6.0625 C-1.48128906 5.14597656 -1.40007813 4.22945312 -1.31640625 3.28515625 C-1 1 -1 1 0 0 Z " fill="#DCBB00" transform="translate(43,202)"/>
</svg>
